<svg width="432" height="280" xmlns="http://www.w3.org/2000/svg" xmlns:xlink="http://www.w3.org/1999/xlink"><defs><linearGradient x1="50%" y1="0%" x2="50%" y2="100%" id="b"><stop stop-color="#FFF" stop-opacity="0" offset="0%"/><stop stop-color="#FFF" offset="100%"/></linearGradient><path d="M380.34 193.56c-22.011 16.449-28.217 45.346-28.217 45.346s29.48 2.23 51.49-14.219c22.01-16.448 28.217-45.345 28.217-45.345s-29.48-2.23-51.49 14.218z" id="a"/><linearGradient x1="50%" y1="0%" x2="50%" y2="100%" id="d"><stop stop-color="#FFF" stop-opacity="0" offset="0%"/><stop stop-color="#FFF" offset="100%"/></linearGradient><path d="M352.14 238.627s-.323-.18-.908-.54a67.5 67.5 0 0 1-1.88-1.197c-6.916-4.556-24.834-17.957-32.183-38.634-9.195-25.888 1.663-53.379 1.663-53.379s23.684 13.31 33.745 37.22c.438 1.03.844 2.08 1.225 3.15 8.001 22.526.82 46.264-1.18 52.05-.3.867-.482 1.33-.482 1.33z" id="c"/><linearGradient x1="50%" y1="0%" x2="50%" y2="100%" id="f"><stop stop-color="#FFF" stop-opacity="0" offset="0%"/><stop stop-color="#FFF" offset="100%"/></linearGradient><path d="M329.875 142.517c-1.657 3.304-13.2 27.615-7.524 52.207 5.676 24.59 26.708 41.387 29.645 43.632 1.656-3.304 13.2-27.616 7.524-52.207-5.676-24.591-26.708-41.388-29.645-43.632z" id="e"/><linearGradient x1="50%" y1="0%" x2="50%" y2="100%" id="h"><stop stop-color="#FFF" stop-opacity="0" offset="0%"/><stop stop-color="#FFF" offset="100%"/></linearGradient><path d="M389.527 201.257c-10.555 25.365-37.058 38.463-37.058 38.463s-9.388-28.025 1.168-53.39c10.555-25.365 37.057-38.463 37.057-38.463s9.389 28.025-1.167 53.39z" id="g"/><linearGradient x1="50%" y1="0%" x2="50%" y2="100%" id="j"><stop stop-color="#FFF" stop-opacity="0" offset="0%"/><stop stop-color="#FFF" offset="100%"/></linearGradient><path d="M427.822 256.418c0 5.75-19.573 11.01-51.932 15.048a717.825 717.825 0 0 1-18.876 2.074 967.874 967.874 0 0 1-18.17 1.583c-6.137.47-12.51.908-19.115 1.312-20.869 1.283-43.935 2.204-68.44 2.665-5.947.11-11.974.197-18.082.26-6.358.06-12.79.09-19.296.09C95.77 279.45 0 269.143 0 256.419s95.77-23.034 213.91-23.034c50.86 0 97.571 1.914 134.282 5.1 1.352.12 2.69.237 4.014.35.007.008.016.012.025.01 46.243 4.228 75.59 10.53 75.59 17.574z" id="i"/><linearGradient x1="50%" y1="0%" x2="50%" y2="100%" id="l"><stop stop-color="#FFF" stop-opacity="0" offset="0%"/><stop stop-color="#FFF" offset="100%"/></linearGradient><path d="M411.381 252.459c0 4.762-18.246 9.117-48.414 12.462a781.727 781.727 0 0 1-17.596 1.716c-5.388.462-11.034.898-16.938 1.307-5.723.396-11.663.759-17.822 1.09-19.456 1.064-40.962 1.824-63.808 2.207-5.54.091-11.159.162-16.855.213-5.93.055-11.925.081-17.988.08-110.14 0-199.425-8.54-199.425-19.075s89.285-19.075 199.425-19.075c24.354 0 47.687.42 69.261 1.186h.055c20.405.724 39.236 1.758 55.87 3.041 1.26.098 2.507.193 3.742.286.007.01.016.014.025.012a781.33 781.33 0 0 1 21.317 2.008c.072.006.145.018.218.024 30.48 3.351 48.933 7.725 48.933 12.518z" id="k"/><linearGradient x1="50%" y1="0%" x2="50%" y2="100%" id="n"><stop stop-color="#FFF" stop-opacity="0" offset="0%"/><stop stop-color="#FFF" offset="100%"/></linearGradient><path d="M360.79 237.285c-2.7 17.548-19.722 11.667-40.32 11.667-21.759 0-39.526 6.563-40.634-14.86 20.405.433 39.236 1.05 55.87 1.817 1.26.058 2.507.115 3.742.17a.035.035 0 0 0 .025.007c7.62.371 14.748.77 21.317 1.2z" id="m"/><linearGradient x1="50%" y1="0%" x2="50%" y2="100%" id="p"><stop stop-color="#FFF" stop-opacity="0" offset="0%"/><stop stop-color="#FFF" offset="100%"/></linearGradient><path d="M115.276 231.947c0 6.326-3.761 8.535-8.402 8.535a14.807 14.807 0 0 1-.96-.033c-4.189-.296-7.442-2.619-7.442-8.502 0-6.087 7.781-13.77 8.367-14.34h.001l.034-.034s8.402 8.048 8.402 14.374z" id="o"/><linearGradient x1="50%" y1="0%" x2="50%" y2="100%" id="r"><stop stop-color="#FFF" stop-opacity="0" offset="0%"/><stop stop-color="#FFF" offset="100%"/></linearGradient><path d="M281.218 227.523c0-24.073 18.219-43.587 40.693-43.587 22.474 0 40.693 19.514 40.693 43.587 0 24.072-18.219 17.071-40.693 17.071-22.474 0-40.693 7.001-40.693-17.071z" id="q"/><linearGradient x1="50%" y1="0%" x2="50%" y2="100%" id="t"><stop stop-color="#FFF" stop-opacity="0" offset="0%"/><stop stop-color="#FFF" offset="100%"/></linearGradient><ellipse id="s" cx="55.366" cy="198.805" rx="6.946" ry="6.944"/><linearGradient x1="50%" y1="100%" x2="50%" y2="0%" id="u"><stop stop-color="gray" stop-opacity=".25" offset="0%"/><stop stop-color="gray" stop-opacity=".12" offset="53.514%"/><stop stop-color="gray" stop-opacity=".1" offset="100%"/></linearGradient><linearGradient x1="50%" y1="100%" x2="50%" y2="0%" id="v"><stop stop-color="gray" stop-opacity=".25" offset="0%"/><stop stop-color="gray" stop-opacity=".12" offset="53.514%"/><stop stop-color="gray" stop-opacity=".1" offset="100%"/></linearGradient><linearGradient x1="50%" y1="100%" x2="50%" y2="0%" id="w"><stop stop-color="gray" stop-opacity=".25" offset="0%"/><stop stop-color="gray" stop-opacity=".12" offset="53.514%"/><stop stop-color="gray" stop-opacity=".1" offset="100%"/></linearGradient><linearGradient x1="50%" y1="100%" x2="50%" y2="0%" id="x"><stop stop-color="gray" stop-opacity=".25" offset="0%"/><stop stop-color="gray" stop-opacity=".12" offset="53.514%"/><stop stop-color="gray" stop-opacity=".1" offset="100%"/></linearGradient><path d="M42.61 241.39c0 6.327-3.761 8.536-8.402 8.536a14.807 14.807 0 0 1-.96-.033c-4.189-.297-7.442-2.619-7.442-8.502 0-6.088 7.781-13.77 8.367-14.34h.001l.034-.034s8.402 8.048 8.402 14.374z" id="y"/><linearGradient x1="50%" y1="0%" x2="50%" y2="100%" id="A"><stop stop-color="#FFF" stop-opacity="0" offset="0%"/><stop stop-color="#FFF" offset="100%"/></linearGradient><ellipse id="z" cx="46.87" cy="187.425" rx="3.633" ry="3.632"/><linearGradient x1="50%" y1="0%" x2="50%" y2="100%" id="C"><stop stop-color="#FFF" stop-opacity="0" offset="0%"/><stop stop-color="#FFF" offset="100%"/></linearGradient><path d="M273.042 143.117c-1.05 1.765-1.275 3.849 0 5.457.159.2.748 1.442 1.002 1.453a.95.95 0 0 0 .638-.322c1.356-1.24 2.35-2.821 3.542-4.221 1.192-1.4 2.695-2.677 4.507-2.96 2.187-.34 4.298.819 6.212 1.936.795.465 1.62.957 2.12 1.732a5.67 5.67 0 0 1 .697 2.366c.66 4.979.646 10.02.63 15.042-.011 3.63-.025 7.287-.712 10.851-.355 1.842-.888 3.65-1.14 5.51a36.974 36.974 0 0 0-.225 4.943l-.005 6.912c-.046 1.27.043 2.54.268 3.79.328 1.515 1.045 2.913 1.524 4.387a28.93 28.93 0 0 1 1.01 5.184l.947 7.157c.298 2.254.518 4.72-.846 6.535-.616.82-1.426 1.477-2.051 2.29-2.34 3.048-1.59 7.395-2.566 11.118a13.932 13.932 0 0 1-4.54 6.956c-1.672 1.42-3.832 2.538-5.985 2.139-2.907-.54-4.653-3.57-5.446-6.433-.792-2.863-1.081-5.98-2.798-8.398-1.402-1.975-3.575-3.217-5.54-4.627-1.964-1.41-3.883-3.227-4.31-5.615-.187-1.043-.071-2.117-.182-3.171a7.503 7.503 0 0 0-4.631-6.08c-1.488-.578-3.326-.785-4.164-2.15 2.164-1.219 3.6-3.472 4.357-5.846.756-2.374.91-4.894 1.06-7.382l.496-8.318c.222-3.716.323-7.4 1.96-10.74.733-1.494 1.643-2.891 2.405-4.37a49.135 49.135 0 0 0 2.576-6.41c1.187-3.407 2.374-6.816 3.432-10.267.504-1.644.989-3.32 1.888-4.784.898-1.464 2.187-3.348 3.87-3.664z" id="B"/><path d="M259.519 247.202c0 6.327-3.762 8.535-8.403 8.535a14.807 14.807 0 0 1-.96-.033c-4.188-.296-7.442-2.618-7.442-8.502 0-6.087 7.781-13.77 8.368-14.339l.034-.034s8.403 8.048 8.403 14.373z" id="D"/></defs><g fill="none" fill-rule="evenodd"><path d="M66.853 81.726v13.076c11.438 0 20.71 9.27 20.71 20.704 0 11.435-9.272 20.704-20.71 20.704v13.076h67.58v-67.56h-67.58z" fill="#111" fill-rule="nonzero" opacity=".07"/><ellipse fill="#111" fill-rule="nonzero" opacity=".07" cx="66.853" cy="115.506" rx="16.35" ry="16.345"/><path fill="#111" fill-rule="nonzero" opacity=".07" d="M314.644 131.87l-26.523-16.344V241.91h26.523zM247.428 241.909h26.523V106.794l-26.523-16.343zM233.258 81.719L100.643 0v73.735h42.51v84.995h-42.51v83.179h132.615zM328.814 140.601V241.91h13.807l37.423-69.74z"/><g fill-rule="nonzero"><use fill="#4629D3" xlink:href="#a"/><use fill-opacity=".33" fill="url(#b)" xlink:href="#a"/></g><g fill-rule="nonzero"><use fill="#63FFD4" xlink:href="#c"/><use fill-opacity=".5" fill="url(#d)" xlink:href="#c"/></g><g fill-rule="nonzero"><use fill="#4629D3" xlink:href="#e"/><use fill-opacity=".33" fill="url(#f)" xlink:href="#e"/></g><g fill-rule="nonzero"><use fill="#63FFD4" xlink:href="#g"/><use fill-opacity=".5" fill="url(#h)" xlink:href="#g"/></g><path fill="#030D54" fill-rule="nonzero" d="M352.392 238.846l37.765-90.001.67.28-37.765 90.002z"/><g fill-rule="nonzero"><use fill="#2CCBBB" xlink:href="#i"/><use fill-opacity=".5" fill="url(#j)" xlink:href="#i"/></g><g fill-rule="nonzero"><use fill="#63FFD4" xlink:href="#k"/><use fill-opacity=".5" fill="url(#l)" xlink:href="#k"/></g><g fill-rule="nonzero"><use fill="#25AC9F" xlink:href="#m"/><use fill-opacity=".2" fill="url(#n)" xlink:href="#m"/></g><g fill-rule="nonzero"><use fill="#63FFD4" xlink:href="#o"/><use fill-opacity=".5" fill="url(#p)" xlink:href="#o"/></g><path d="M106.568 239.514l3.073-4.292-3.08 4.764-.008.492a13.294 13.294 0 0 1-.64-.03l.332-6.328-.003-.05.006-.008.032-.598-3.09-4.776 3.099 4.327.008.127.25-4.782-2.645-4.934 2.677 4.096.26-9.915.001-.034v.034l-.043 7.817 2.632-3.1-2.643 3.774-.07 4.281 2.459-4.109-2.469 4.74-.038 2.38 3.567-5.72-3.581 6.55-.086 5.294z" fill="#030D54" fill-rule="nonzero"/><use fill="#25AC9F" xlink:href="#q"/><use fill-opacity=".33" fill="url(#r)" xlink:href="#q"/><path fill="#030D54" fill-rule="nonzero" d="M55.002 198.805h1v49.101h-1z"/><g fill-rule="nonzero"><use fill="#FF7264" xlink:href="#s"/><use fill-opacity=".5" fill="url(#t)" xlink:href="#s"/></g><path d="M55.366 229.067s-.993-21.334-21.333-18.854" fill="#28316D" fill-rule="nonzero"/><path d="M257.606 206.885c.182.64.384 1.277.6 1.91-.97-.954-1.922-1.933-2.892-2.88.39.12.777.242 1.144.385.4.16.785.355 1.148.585z" fill="url(#u)" fill-rule="nonzero"/><path d="M252.908 203.7c-5.717-4.969-12.342-8.816-18.2-13.634 3.199 1.573 6.31 3.407 9.398 5.165a289.317 289.317 0 0 0 11.116 6.013 9.064 9.064 0 0 1-2.314 2.457z" fill="url(#v)" fill-rule="nonzero"/><path d="M255.353 191.187l.274-.28c.002.706.008 1.366.016 1.965a95.82 95.82 0 0 1-1.532-.523c.438-.36.853-.749 1.242-1.162z" fill="url(#w)" fill-rule="nonzero"/><path d="M204.993 204.641a47.006 47.006 0 0 0 6.101-8.7c2.27 3.964 5.958 6.823 9.095 10.143-5.055-.667-10.117-1.218-15.196-1.443z" fill="url(#x)" fill-rule="nonzero"/><g fill-rule="nonzero"><use fill="#63FFD4" xlink:href="#y"/><use fill-opacity=".5" fill="url(#p)" xlink:href="#y"/></g><path d="M33.902 248.958l3.073-4.292-3.08 4.763-.009.493a13.295 13.295 0 0 1-.638-.03l.33-6.328-.002-.05.006-.008.031-.598-3.088-4.776 3.098 4.327.007.127.25-4.782-2.644-4.934 2.677 4.096.26-9.915.001-.034v.034l-.043 7.817 2.632-3.1-2.643 3.774-.07 4.28 2.459-4.108-2.469 4.739-.038 2.38 3.567-5.719-3.581 6.55-.086 5.294z" fill="#030D54" fill-rule="nonzero"/><g fill-rule="nonzero"><use fill="#FF7264" xlink:href="#z"/><use fill-opacity=".5" fill="url(#A)" xlink:href="#z"/></g><path d="M280.487 136.585s13.18-2.918 14.634 8.706c1.453 11.623-7 13.817-7 13.817l-5.353 1.438-20.71-5.448 2.907-8.354 15.522-10.16z" fill="#030D54" fill-rule="nonzero"/><ellipse fill="#030D54" fill-rule="nonzero" cx="275.737" cy="119.419" rx="17.812" ry="17.807"/><path fill="#030D54" fill-rule="nonzero" d="M213.148 156.395l3.619.728 12.305 18.19-5.429.727z"/><path d="M125.611 230.194a71.06 71.06 0 0 0 3.597 9.389 87.668 87.668 0 0 0 12.007-3.42c.12-.044-2.246-3.139-2.494-3.391-.938-.954-2.152-2.069-3.391-2.608-1.25-.543-2.79-.128-4.127-.06a80.262 80.262 0 0 1-5.592.09z" fill="#FBBEBE" fill-rule="nonzero"/><path d="M135.351 235.053c-2.04-.638-3.28-2.69-4.11-4.669-.829-1.979-1.498-4.136-3.072-5.589-.603.03-1.088.519-1.387 1.046-.298.528-.476 1.123-.82 1.62-.657.949-1.81 1.407-2.635 2.211-.865.843-1.338 2.035-2.234 2.845-1.125 1.018-2.715 1.27-4.19 1.607a26.878 26.878 0 0 0-6.558 2.43c-.762.46-1.578.826-2.429 1.089a9.126 9.126 0 0 1-2.84.095l-6.525-.465a5.1 5.1 0 0 0-1.742.076c-1.341.377-2.174 1.873-2.075 3.27.098 1.396.967 2.647 2.064 3.509a13.744 13.744 0 0 0 3.716 1.882 110.133 110.133 0 0 0 17.494 4.996l.003 1.29a30.22 30.22 0 0 0 13.317 3.1c.341.026.684-.033.996-.172.458-.249.67-.784.84-1.278a51.738 51.738 0 0 0 2.721-14.18c.116-1.224.02-2.46-.28-3.652-.356-1.174.867-.681-.265-1.14" fill="#030D54" fill-rule="nonzero"/><path d="M260.484 210.465c-19.344 1.158-38.462-4.503-57.831-5.108-2.408-.075-4.842-.07-7.193.458-2.488.559-4.806 1.684-7.12 2.76-10.387 4.832-21.134 8.834-31.867 12.83l-12.33 4.591c-2.464.918-5.017 1.85-7.64 1.69-1.175-.073-2.618-.25-3.28.73-2.006 2.97-1.058 7.335.268 10.669.43 1.082 1.157 2.25 2.31 2.373.812.087 1.567-.383 2.355-.594 2.245-.601 4.482.908 6.792 1.154 2.853.303 5.503-1.322 8.196-2.317 4.467-1.65 9.351-1.599 14.047-2.38 7.872-1.311 15.17-4.966 21.99-9.13 2.598-1.585 5.226-3.283 8.21-3.863 3.43-.667 6.954.217 10.318 1.168a238.35 238.35 0 0 1 23.655 8.053c4.075 1.63 8.12 3.378 12.36 4.506a44.7 44.7 0 0 0 27.7-1.615c3.096-1.223 6.46-3.386 6.638-6.725.1-1.904-1.376-3.582-2.363-5.21-.633-1.044-1.267-2.089-1.956-3.096-3.336-4.876-7.383-11.296-13.26-10.944z" fill="#2F2E41" fill-rule="nonzero"/><path d="M260.484 210.465c-19.344 1.158-38.462-4.503-57.831-5.108-2.408-.075-4.842-.07-7.193.458-2.488.559-4.806 1.684-7.12 2.76-10.387 4.832-21.134 8.834-31.867 12.83l-12.33 4.591c-2.464.918-5.017 1.85-7.64 1.69-1.175-.073-2.618-.25-3.28.73-2.006 2.97-1.058 7.335.268 10.669.43 1.082 1.157 2.25 2.31 2.373.812.087 1.567-.383 2.355-.594 2.245-.601 4.482.908 6.792 1.154 2.853.303 5.503-1.322 8.196-2.317 4.467-1.65 9.351-1.599 14.047-2.38 7.872-1.311 15.17-4.966 21.99-9.13 2.598-1.585 5.226-3.283 8.21-3.863 3.43-.667 6.954.217 10.318 1.168a238.35 238.35 0 0 1 23.655 8.053c4.075 1.63 8.12 3.378 12.36 4.506a44.7 44.7 0 0 0 27.7-1.615c3.096-1.223 6.46-3.386 6.638-6.725.1-1.904-1.376-3.582-2.363-5.21-.633-1.044-1.267-2.089-1.956-3.096-3.336-4.876-7.383-11.296-13.26-10.944z" fill="#030D54" fill-rule="nonzero"/><path d="M162.75 231.136a175.629 175.629 0 0 0 9.163 2.85c1.725-2.832 4.951-4.802 5.687-8.038a.706.706 0 0 0 0-.433.73.73 0 0 0-.347-.31 17.065 17.065 0 0 0-7.175-2.102c-1.988-.126-2.895 1.95-3.797 3.408-.365.59-2.72 4.901-3.531 4.625z" fill="#FBBEBE" fill-rule="nonzero"/><path d="M166.994 229.07c-1.788-.375-3.538-1.336-4.451-2.927-.428-.745-.883-1.75-1.737-1.693-.792.052-1.156.998-1.335 1.776-.668 2.914-1.325 5.85-2.497 8.6-1.173 2.747-2.907 5.328-5.354 7.029-1.122.78-2.373 1.363-3.47 2.179-.985.732-1.844 1.652-2.933 2.218-.728.334-1.48.614-2.25.84-1.13.393-2.212.92-3.22 1.567a6.48 6.48 0 0 0-2.194 2.095 3.072 3.072 0 0 0-.18 2.932 3.175 3.175 0 0 0 2.146 1.47c.882.152 1.78.175 2.669.067 3.527-.26 7.05-.574 10.572-.888a30.324 30.324 0 0 0 4.431-.616c.772-.186 1.528-.432 2.297-.63a18.944 18.944 0 0 1 4.028-.587c.395-.033.792.003 1.175.108.816.266 1.395 1.078 2.237 1.243a3.553 3.553 0 0 0 1.593-.213c2.538-.694 5.205-.675 7.832-.817 1.157-.063 2.511-.282 3.042-1.318.662-1.291-.436-2.735-.873-4.12-.218-.885-.34-1.79-.363-2.702a16.54 16.54 0 0 0-1.943-6.423c-.897-1.648-2.123-3.47-1.492-5.24.214-.6.64-1.158.597-1.794-.186-2.795-6.705-1.817-8.327-2.157z" fill="#030D54" fill-rule="nonzero"/><path d="M231.476 179.44a15.136 15.136 0 0 1-7.708-7.653c-.323-.735-.588-1.501-.9-2.242a17.035 17.035 0 0 0-4.606-6.396c-.503-.427-1.094-.834-1.71-.723-.59.108-1.055.692-1.257 1.347a5.491 5.491 0 0 0-.128 2.066 36.99 36.99 0 0 0 .838 4.833l.938 4.27a8.18 8.18 0 0 0 .583 1.907 6.713 6.713 0 0 0 1.574 1.882 80.696 80.696 0 0 0 2.61 2.302 7.296 7.296 0 0 0 4.527 2.012c3.842.713 7.749 1.738 10.99 4.245-.036-.028-.014-2.865-.07-3.19-.148-.859-.264-1.71-.823-2.291-1.257-1.305-3.327-1.689-4.858-2.369z" fill="#FBBEBE" fill-rule="nonzero"/><path d="M231.476 179.44a15.136 15.136 0 0 1-7.708-7.653c-.323-.735-.588-1.501-.9-2.242a17.035 17.035 0 0 0-4.606-6.396c-.503-.427-1.094-.834-1.71-.723-.59.108-1.055.692-1.257 1.347a5.491 5.491 0 0 0-.128 2.066 36.99 36.99 0 0 0 .838 4.833l.938 4.27a8.18 8.18 0 0 0 .583 1.907 6.713 6.713 0 0 0 1.574 1.882 80.696 80.696 0 0 0 2.61 2.302 7.296 7.296 0 0 0 4.527 2.012c3.842.713 7.749 1.738 10.99 4.245-.036-.028-.014-2.865-.07-3.19-.148-.859-.264-1.71-.823-2.291-1.257-1.305-3.327-1.689-4.858-2.369z" fill="#000" fill-rule="nonzero" opacity=".1"/><ellipse fill="#2F2E41" fill-rule="nonzero" cx="270.87" cy="142.026" rx="4.705" ry="4.729"/><path d="M267.958 139.168c-1.277-.141-2.695-.246-3.719.535a5.077 5.077 0 0 0-1.272 1.732c-.984 1.846-1.954 3.728-2.449 5.762-.42 1.726-.49 3.531-1.01 5.23-.964 3.15-3.436 5.809-3.718 9.093-.127 1.47.12 3.19-.953 4.197a6.303 6.303 0 0 1-.846.6 6.395 6.395 0 0 0-1.851 1.903c-.402.638-.711 1.37-1.315 1.818-.957.709-2.546.637-3.017 1.733-.485 1.127.745 2.382.46 3.575-.232.973-1.316 1.418-2.063 2.079-.956.846-1.394 2.123-1.793 3.34a11.096 11.096 0 0 1-9.002-2.244c1.313 3.233 1.341 6.802 1.398 10.295.019 1.133-.017 2.404-.826 3.193 3.746.08 7.399 1.095 11.054 1.92 1.598.362 3.332.675 4.821-.008a7.866 7.866 0 0 0 2.209-1.756c1.988-2.016 4.074-4.215 4.56-7.011.273-1.567.009-3.175.081-4.764.09-1.969.692-3.871 1.207-5.773a68.098 68.098 0 0 0 2.113-11.886c.217-2.48 2.358-4.474 3.486-6.69 2.128-4.182 4.303-8.538 4.463-13.232.054-1.57-.464-3.468-2.018-3.64z" fill="#2F2E41" fill-rule="nonzero"/><path d="M267.958 139.168c-1.277-.141-2.695-.246-3.719.535a5.077 5.077 0 0 0-1.272 1.732c-.984 1.846-1.954 3.728-2.449 5.762-.42 1.726-.49 3.531-1.01 5.23-.964 3.15-3.436 5.809-3.718 9.093-.127 1.47.12 3.19-.953 4.197a6.303 6.303 0 0 1-.846.6 6.395 6.395 0 0 0-1.851 1.903c-.402.638-.711 1.37-1.315 1.818-.957.709-2.546.637-3.017 1.733-.485 1.127.745 2.382.46 3.575-.232.973-1.316 1.418-2.063 2.079-.956.846-1.394 2.123-1.793 3.34a11.096 11.096 0 0 1-9.002-2.244c1.313 3.233 1.341 6.802 1.398 10.295.019 1.133-.017 2.404-.826 3.193 3.746.08 7.399 1.095 11.054 1.92 1.598.362 3.332.675 4.821-.008a7.866 7.866 0 0 0 2.209-1.756c1.988-2.016 4.074-4.215 4.56-7.011.273-1.567.009-3.175.081-4.764.09-1.969.692-3.871 1.207-5.773a68.098 68.098 0 0 0 2.113-11.886c.217-2.48 2.358-4.474 3.486-6.69 2.128-4.182 4.303-8.538 4.463-13.232.054-1.57-.464-3.468-2.018-3.64z" fill="#030D54" fill-rule="nonzero"/><path d="M263.552 214.537c-4.029-1.916-6.977-5.489-10.234-8.547-6.219-5.837-13.823-9.97-20.362-15.443-4.334-3.628-8.21-7.852-12.972-10.89a32.298 32.298 0 0 0-13.894-4.866 3.914 3.914 0 0 0-1.701.085 4.028 4.028 0 0 0-1.582 1.25 49.46 49.46 0 0 0-5.6 7.699c-8.287 14.064-20.059 25.89-29.812 38.97a1.748 1.748 0 0 0-.116 2.362l1.984 3.886c1.11 2.175 2.888 4.708 5.282 4.276 1.093-.198 1.965-1.002 2.77-1.772l8.906-8.51 9.338-8.924c5.471-5.229 11.036-10.578 14.602-17.266 2.788 4.833 7.733 7.996 11.126 12.42 1.29 1.683 2.345 3.534 3.497 5.315 1.847 2.856 3.947 5.536 6.044 8.212l10.711 13.668c1.46 1.864 2.962 3.765 4.96 5.03 2.536 1.605 5.622 2.028 8.608 2.295 4.023.36 8.063.506 12.103.438 3.08-.053 6.255-.255 9.018-1.622 2.764-1.368 5.034-4.174 4.89-7.267-.075-1.608-.774-3.117-1.544-4.529-3.826-7.017-8.826-12.847-16.022-16.27z" fill="#28316D" fill-rule="nonzero"/><ellipse fill="#2F2E41" fill-rule="nonzero" cx="273.766" cy="145.3" rx="3.619" ry="3.638"/><path d="M272.966 142.566c.882 1.558.882 3.496.397 5.22-.486 1.725-1.413 3.285-2.33 4.821-.902 1.513-1.815 3.04-3.025 4.316 5.586.267 11.001-1.923 15.93-4.577 3.966-2.135 7.924-4.771 10.04-8.762-1.237.372-2.602.005-3.697-.683a13.758 13.758 0 0 1-2.833-2.638l-2.805-3.154a12.586 12.586 0 0 1-1.725-2.264 6.36 6.36 0 0 1-.74-3.658 20.918 20.918 0 0 1-3.71 3.078c-2.004 1.304-4.212 2.25-6.22 3.545-.711.46-2.294 1.198-1.886 2.128.397.907 2.04 1.632 2.604 2.628z" fill="#FBBEBE" fill-rule="nonzero"/><path d="M272.966 142.566c.882 1.558.882 3.496.397 5.22-.486 1.725-1.413 3.285-2.33 4.821-.902 1.513-1.815 3.04-3.025 4.316 5.586.267 11.001-1.923 15.93-4.577 3.966-2.135 7.924-4.771 10.04-8.762-1.237.372-2.602.005-3.697-.683a13.758 13.758 0 0 1-2.833-2.638l-2.805-3.154a12.586 12.586 0 0 1-1.725-2.264 6.36 6.36 0 0 1-.74-3.658 20.918 20.918 0 0 1-3.71 3.078c-2.004 1.304-4.212 2.25-6.22 3.545-.711.46-2.294 1.198-1.886 2.128.397.907 2.04 1.632 2.604 2.628z" fill="#000" fill-rule="nonzero" opacity=".1"/><g fill-rule="nonzero"><use fill="#4629D3" xlink:href="#B"/><use fill-opacity=".33" fill="url(#C)" xlink:href="#B"/></g><path d="M254.567 197.151l2.201.08.469-3.327a6.97 6.97 0 0 1 .466-1.939c.363-.656.787-1.277 1.266-1.854 2.166-3.06 2.009-7.123 2.545-10.84.716-4.958 2.788-9.6 4.837-14.166l4.273-9.523a10.318 10.318 0 0 0 1.182-5.256c.038-1.472.474-6.828.512-8.3.014-.545-1.201-.242-1.448-.728-.536-1.057-1.269 1.81-2.27 2.439-1 .629-1.553 1.768-1.978 2.875-.92 2.4-1.484 4.922-2.342 7.344-.858 2.422-2.059 4.802-3.99 6.489-.877.766-1.888 1.374-2.716 2.193-2.659 2.628-2.918 6.779-3.011 10.526-.056 2.228-.487 23.987.004 23.987zM286.26 139.146c-2.138.84-3.31 3.159-3.911 5.386-.601 2.227-.846 4.601-1.995 6.6-2.684 4.67-9.53 6.032-11.424 11.08-.62 1.652-.593 3.464-.76 5.221-.343 3.617-1.533 7.111-1.884 10.727-.273 2.802-.037 5.625.198 8.43l2.392 28.526c.346 4.12.337 8.547-.716 12.544 2.422.472 4.94-.16 7.187-1.184 2.248-1.025 4.299-2.43 6.462-3.624 3.72-2.051 7.82-3.504 11.078-6.237a6.437 6.437 0 0 0 1.493-1.65c.652-1.127.706-2.492 1.016-3.758.282-1.011.64-1.999 1.072-2.955a88.01 88.01 0 0 0 3.113-8.795 48.596 48.596 0 0 0 1.43-6.04c.262-1.626.403-3.268.544-4.91.173-2.568.684-5.103 1.518-7.54a60.395 60.395 0 0 0 3.494-18.068 9.13 9.13 0 0 0-.18-2.66c-.283-1.083-.922-2.03-1.447-3.017-.994-1.873-1.59-3.933-2.53-5.834-2.12-4.296-5.864-7.553-9.786-10.283-1.926-1.34-4.182-2.817-6.364-1.96z" fill="#030D54" fill-rule="nonzero"/><path d="M236.243 185.682c-1.656-.963-3.311-2.001-4.557-3.46-.597-.7-1.09-1.485-1.697-2.175-1.476-1.68-3.568-2.721-5.731-3.266-2.163-.544-4.412-.627-6.642-.645-1.491-.013-3.02.008-4.416.535-1.397.527-2.656 1.664-2.926 3.139-.325 1.774.835 3.503 2.227 4.64a10.73 10.73 0 0 0 4.452 2.161c1.331.233 2.675.39 4.024.472 7.922.829 14.99 5.14 21.931 9.064a289.902 289.902 0 0 0 18.647 9.67c.251-1.897.356-3.81.312-5.723-.032-1.428-.102-3.606-1.452-4.444-1.572-.977-4.16-1.202-5.935-1.783a95.27 95.27 0 0 1-18.237-8.185z" fill="#FBBEBE" fill-rule="nonzero"/><ellipse fill="#FBBEBE" fill-rule="nonzero" cx="270.87" cy="126.747" rx="14.114" ry="14.188"/><path d="M290.295 155.231c-1.26 1.47-1.891 3.363-2.738 5.106-1.743 3.588-4.477 6.668-5.846 10.416-1.444 3.954-1.395 8.657-4.226 11.763-.492.54-1.086 1.061-1.229 1.78-.084.426.003.882-.144 1.291-.405 1.129-2.253 1.185-2.598 2.334-.1.336-.044.708-.169 1.036-.283.743-1.264.857-1.92 1.302-1.37.929-1.094 3.089-2.072 4.428-.773 1.06-2.231 1.415-3.526 1.235-1.295-.18-2.482-.8-3.661-1.367a3.332 3.332 0 0 0-1.317-.413c-.547.019-1.076.2-1.52.519-2.607 1.657-3.83 4.94-3.813 8.04.018 3.101 1.084 6.089 2.175 8.989.15.49.394.945.72 1.339.864.914 2.37.766 3.517.258 1.148-.509 2.191-1.308 3.426-1.532 2.184-.395 4.318 1.105 6.534.981 1.623-.09 3.06-1.034 4.408-1.946 2.153-1.457 4.345-2.95 5.928-5.018.969-1.266 1.679-2.71 2.524-4.062a46.925 46.925 0 0 1 3.564-4.76l8.139-9.958a16.096 16.096 0 0 0 3.898-7.571c.774-2.655 1.553-5.34 1.686-8.102.11-2.274-.22-4.544-.59-6.79-.366-2.21-.782-4.446-1.753-6.463-1.768-3.671-6.073-6.71-9.397-2.835z" fill="#030D54" fill-rule="nonzero"/><ellipse fill="#030D54" fill-rule="nonzero" cx="295.033" cy="95.974" rx="17.812" ry="17.807"/><path d="M310.397 110.72a17.817 17.817 0 0 1-27.506-9.35 17.809 17.809 0 0 0 11.67 14.543 17.816 17.816 0 0 0 18.251-3.836 17.804 17.804 0 0 0 4.824-18.01 17.799 17.799 0 0 1-7.24 16.652z" fill="#030D54" fill-rule="nonzero"/><ellipse fill="#030D54" fill-rule="nonzero" cx="280.487" cy="122.387" rx="13.062" ry="13.058"/><ellipse fill="#030D54" fill-rule="nonzero" cx="269.503" cy="117.49" rx="11.578" ry="9.052"/><ellipse fill="#FBBEBE" fill-rule="nonzero" transform="rotate(-39.118 272.231 131.67)" cx="272.231" cy="131.67" rx="1.816" ry="2.725"/><g fill-rule="nonzero"><use fill="#63FFD4" xlink:href="#D"/><use fill-opacity=".5" fill="url(#p)" xlink:href="#D"/></g><path d="M250.81 254.77l3.073-4.293-3.08 4.764-.008.493a13.295 13.295 0 0 1-.639-.03l.331-6.328-.002-.05.005-.008.032-.599-3.089-4.775 3.098 4.327.008.127.25-4.782-2.644-4.935 2.676 4.096.26-9.914.001-.034v.033l-.043 7.818 2.632-3.1-2.643 3.773-.07 4.282 2.46-4.11-2.47 4.74-.038 2.38 3.567-5.72-3.581 6.55-.086 5.294z" fill="#030D54" fill-rule="nonzero"/></g></svg>